<svg xmlns="http://www.w3.org/2000/svg" width="24" height="24" viewBox="0 0 24 24" fill="none">
<circle cx="12" cy="12" r="12" fill="#35D394"/>
<path fill-rule="evenodd" clip-rule="evenodd" d="M12.5724 3.24958C11.8911 3.20469 11.2049 3.23866 10.5321 3.35392C10.1389 3.42066 9.87318 3.79615 9.94053 4.18926C9.97268 4.37915 10.0782 4.54662 10.2372 4.65885C10.3949 4.77047 10.5861 4.8135 10.7754 4.78074C11.1764 4.7128 11.5871 4.67766 11.9954 4.67766C12.1544 4.67766 12.3164 4.68312 12.4766 4.69343C15.208 4.87422 17.5905 6.54127 18.6953 9.04313C19.8881 11.747 19.3475 14.8817 17.3169 17.0292C17.0432 17.3192 17.0566 17.7785 17.3466 18.0533C17.4813 18.1801 17.6579 18.2504 17.8435 18.2504C18.0419 18.2504 18.2336 18.1679 18.3695 18.0235C20.8006 15.4513 21.4486 11.6973 20.0198 8.45891C18.6965 5.46262 15.8426 3.46676 12.5724 3.24958ZM13.765 19.3391C13.6066 19.2268 13.4149 19.1832 13.225 19.2159C9.91846 19.7801 6.66105 18.0263 5.30505 14.9541C3.94906 11.8808 4.84881 8.29361 7.49406 6.23036C7.64573 6.11206 7.7428 5.9398 7.76646 5.7487C7.79012 5.55639 7.73795 5.3665 7.61903 5.21484C7.48131 5.0383 7.27321 4.93639 7.04813 4.93639C6.88492 4.93639 6.73142 4.98975 6.6028 5.08924C3.43457 7.56017 2.35646 11.8571 3.98061 15.5383C5.38271 18.716 8.52668 20.7689 11.9898 20.7689C12.4824 20.7689 12.9799 20.7271 13.4683 20.6434C13.6582 20.6113 13.8251 20.5056 13.9367 20.3485C14.0489 20.1908 14.0926 19.9991 14.0598 19.8086C14.0277 19.6175 13.9227 19.4507 13.765 19.3391ZM14.7163 7.83224C15.0524 8.05488 15.1452 8.50869 14.9232 8.84539C14.7011 9.18087 14.2467 9.27367 13.9106 9.05163C13.3433 8.67611 12.6814 8.47837 11.9976 8.47837C10.0822 8.47837 8.52422 10.0368 8.52422 11.9521C8.52422 12.3555 8.19599 12.6831 7.79314 12.6831C7.38967 12.6831 7.06205 12.3555 7.06205 11.9521C7.06205 9.2306 9.27593 7.0163 11.9976 7.0163C12.969 7.0163 13.9088 7.29898 14.7163 7.83224ZM16.2084 11.2212H14.7286C14.3257 11.2212 13.9975 11.5494 13.9975 11.9522C13.9975 12.355 14.3257 12.6832 14.7286 12.6832H15.4002L15.3644 12.8221C14.9688 14.3545 13.5868 15.4259 12.0033 15.4259C11.3201 15.4259 10.6588 15.2276 10.0909 14.8526C9.97139 14.7738 9.83245 14.7319 9.68927 14.7319C9.44234 14.7319 9.21362 14.8544 9.07832 15.0595C8.97093 15.2227 8.93332 15.4168 8.97215 15.6085C9.01158 15.8002 9.1226 15.9647 9.2852 16.072C10.0927 16.6065 11.0325 16.8886 12.0033 16.8886C14.725 16.8886 16.9394 14.6743 16.9394 11.9522C16.9394 11.5494 16.6112 11.2212 16.2084 11.2212ZM12.0115 13.0151C11.4551 13.0151 11.0025 12.5626 11.0025 12.0063C11.0025 11.419 11.4363 10.9773 12.0115 10.9773C12.5478 10.9773 13.001 11.4487 13.001 12.0063C13.001 12.5438 12.5387 13.0151 12.0115 13.0151Z" fill="white"/>
</svg>